PathFileType	4	(x/y/z)	S08_P20_T05
DataRate	CameraRate	NumFrames	NumMarkers	Units	OrigDataRate	OrigDataStartFrame	OrigNumFrames
240	240	7	51	mm	240	340	388
Frame#	Time	Sternum			R.Acromium			L.Acromium			Top.Head			R.ASIS			L.ASIS			R.PSIS			L.PSIS			R.Great.Tro			L.Great.Tro			R.Iliac.Crest			L.Iliac.Crest			V.Sacral			R.Thigh.Upper.Post			R.Thigh.Lower.Ant			R.Thigh.Lower.Post			R.Thigh.Upper.Ant			R.Knee.Lat			R.Knee.Med			R.Shank.Upper.Post			R.Shank.Lower.Ant			R.Shank.Lower.Post			R.Shank.Upper.Ant			R.Ankle.Lat			R.Ankle.Med			R.Heel.Upper			R.Heel.Med			R.Heel.Lat			R.Toe.Lat			R.Toe.Med			R.Toe.Tip			L.Thigh.Upper.Post			L.Thigh.Lower.Ant			L.Thigh.Lower.Post			L.Thigh.Upper.Ant			L.Knee.Lat			L.Knee.Med			L.Shank.Upper.Post			L.Shank.Lower.Ant			L.Shank.Lower.Post			L.Shank.Upper.Ant			L.Ankle.Lat			L.Ankle.Med			L.Heel.Upper			L.Heel.Med			L.Heel.Lat			L.Toe.Lat			L.Toe.Med			L.Toe.Tip			Cervical.Spine			Back			
		X1	Y1	Z1	X2	Y2	Z2	X3	Y3	Z3	X4	Y4	Z4	X5	Y5	Z5	X6	Y6	Z6	X7	Y7	Z7	X8	Y8	Z8	X9	Y9	Z9	X10	Y10	Z10	X11	Y11	Z11	X12	Y12	Z12	X13	Y13	Z13	X14	Y14	Z14	X15	Y15	Z15	X16	Y16	Z16	X17	Y17	Z17	X18	Y18	Z18	X19	Y19	Z19	X20	Y20	Z20	X21	Y21	Z21	X22	Y22	Z22	X23	Y23	Z23	X24	Y24	Z24	X25	Y25	Z25	X26	Y26	Z26	X27	Y27	Z27	X28	Y28	Z28	X29	Y29	Z29	X30	Y30	Z30	X31	Y31	Z31	X32	Y32	Z32	X33	Y33	Z33	X34	Y34	Z34	X35	Y35	Z35	X36	Y36	Z36	X37	Y37	Z37	X38	Y38	Z38	X39	Y39	Z39	X40	Y40	Z40	X41	Y41	Z41	X42	Y42	Z42	X43	Y43	Z43	X44	Y44	Z44	X45	Y45	Z45	X46	Y46	Z46	X47	Y47	Z47	X48	Y48	Z48	X49	Y49	Z49	X50	Y50	Z50	X51	Y51	Z51	

340	1.4125	509.15	1212.4	302.77	385.98	1448.4	476.08	389.11	1483.5	141.5	404.33	1772.1	335.77	474.87	1006.4	408.11	478.35	1003.9	175.16	274.54	1024	332.56	280.25	1030.3	239.15	419.41	895.44	478.8	379.32	901.11	108.28	374.9	1069.6	454.12	387.99	1086.8	145.96	262.49	986.29	283.45	463.79	695.38	458.16	571.22	630.06	425.16	501.37	614.98	435.52	540.97	717.53	450.05	571.94	532.44	415.65	542.38	526.58	291.08	550.42	339.44	423.23	622.77	291.4	398.7	566.25	263.91	414.49	607.36	367.24	408.54	603.39	100.06	379.61	628.96	122.82	299.25	567.54	57.777	327.44	585.77	34.632	300.78	577.38	35.004	362.6	NaN	NaN	NaN	763.14	84.751	293.59	818.25	119.38	341	323.79	704.98	129.11	391.72	601.12	153.73	324.35	613.58	151.21	391.66	687.77	130.21	311.61	512.12	171.52	324.44	510.13	295.9	182.79	369.17	175.82	208.66	262.14	195.87	150.51	304.39	193.45	236.37	331.47	178.54	100.24	134.56	212.2	127.08	134.42	295.73	39.721	118.45	261.45	43.995	83.111	292.92	40.086	89.316	228.32	205.15	37.562	196.64	226.35	42.024	311.03	291.49	44.736	263.4	320.16	1509.8	300.88	274.31	1226.5	298.12
341	1.4167	514.77	1212.3	303.22	391.34	1448.1	476.7	394.11	1483.2	142.07	409.49	1771.9	336.22	480.86	1006.2	408.44	484.14	1003.8	175.51	280.42	1023.7	332.93	286.13	1029.9	239.57	425.45	895.07	479.05	385.34	900.64	108.65	380.86	1069.3	454.46	393.66	1086.5	146.24	268.38	985.88	283.82	469.14	695.11	458	576.53	629.49	425.01	506.65	614.59	435.34	546.55	717.04	449.97	577.03	531.87	415.44	547.34	526.17	290.96	554.19	338.93	423.04	626.06	290.36	398.39	569.4	263.31	414.36	611.29	366.3	408.19	604.92	99.424	379.46	630.58	121.83	299.07	568.5	58.113	327.29	586.34	34.627	300.65	578	35.215	362.48	NaN	NaN	NaN	764.27	82.325	293.27	819.8	116.39	340.64	330.86	703.89	129.74	399.64	600.49	153.73	332.2	612.57	151.54	398.91	687.2	130.49	319.9	511.35	171.53	333.09	509.06	295.73	189.31	370.48	175.68	213.43	263.05	195.51	155.98	306.24	193.24	242.25	331.92	178.24	102.9	137.22	211.79	129.94	136.7	295.17	42.364	122.57	261.12	45.912	87.376	292.75	42.017	93.32	228.11	205.39	37.817	196.71	226.88	42.556	311.03	291.69	44.328	263.47	325.33	1509.5	301.56	279.87	1226	298.68
342	1.4208	520.39	1212.3	303.66	396.73	1447.8	477.32	399.08	1483	142.65	414.65	1771.7	336.68	486.84	1006	408.77	489.93	1003.7	175.87	286.29	1023.3	333.3	292.01	1029.5	239.98	431.5	894.78	479.33	391.38	900.18	109.02	386.83	1069	454.79	399.32	1086.3	146.52	274.26	985.52	284.19	474.5	694.93	457.9	581.81	628.98	424.88	511.91	614.27	435.24	552.13	716.63	449.88	582.09	531.36	415.27	552.15	525.78	290.9	557.9	338.47	422.93	629.27	289.37	398.13	572.49	262.77	414.32	615.17	365.4	407.9	606.32	98.837	379.36	632.08	120.89	298.96	569.32	58.481	327.2	586.76	34.672	300.57	578.48	35.449	362.41	NaN	NaN	NaN	765.26	79.938	292.99	821.22	113.4	340.35	338.09	702.76	130.37	407.79	599.87	153.69	340.27	611.52	151.83	406.32	686.63	130.74	328.47	510.57	171.46	342.04	507.95	295.49	196.12	371.86	175.5	218.46	264.06	195.1	161.75	308.17	192.99	248.41	332.43	177.89	105.83	140.04	211.35	133.06	139.14	294.58	45.316	126.99	260.75	48.091	91.956	292.57	44.198	97.626	227.89	205.68	38.149	196.77	227.46	43.155	311.02	291.9	43.922	263.54	330.51	1509.3	302.26	285.43	1225.7	299.27
343	1.425	525.99	1212.3	304.07	402.15	1447.7	477.94	404.02	1482.9	143.23	419.81	1771.6	337.14	492.81	1005.9	409.11	495.71	1003.6	176.23	292.14	1023	333.66	297.88	1029.2	240.38	437.55	894.59	479.62	397.46	899.73	109.4	392.79	1068.9	455.12	404.96	1086.2	146.79	280.13	985.2	284.56	479.87	694.84	457.87	587.08	628.55	424.78	517.16	614.02	435.22	557.7	716.29	449.8	587.11	530.9	415.15	556.79	525.41	290.92	561.57	338.08	422.91	632.43	288.44	397.93	575.52	262.3	414.36	618.99	364.56	407.67	607.61	98.303	379.31	633.47	120.03	298.92	570.03	58.873	327.15	587.08	34.761	300.53	578.85	35.699	362.38	NaN	NaN	NaN	766.13	77.612	292.77	822.53	110.45	340.12	345.46	701.58	130.98	416.16	599.27	153.6	348.56	610.45	152.07	413.88	686.07	130.97	337.33	509.77	171.32	351.32	506.8	295.17	203.24	373.31	175.27	223.76	265.14	194.63	167.81	310.2	192.7	254.85	333.01	177.48	109.05	143.03	210.87	136.47	141.73	293.94	48.599	131.69	260.36	50.554	96.856	292.36	46.65	102.24	227.65	206.02	38.571	196.82	228.12	43.826	311	292.11	43.515	263.61	335.68	1509.1	302.97	290.98	1225.4	299.87
344	1.4292	531.59	1212.4	304.46	407.6	1447.5	478.57	408.94	1482.8	143.82	424.97	1771.6	337.62	498.76	1005.9	409.44	501.48	1003.6	176.61	297.97	1022.8	334.02	303.73	1028.8	240.78	443.6	894.49	479.93	403.57	899.29	109.78	398.74	1068.8	455.44	410.58	1086	147.06	285.98	984.93	284.93	485.26	694.83	457.92	592.33	628.19	424.71	522.4	613.86	435.29	563.28	716.03	449.73	592.09	530.49	415.09	561.28	525.07	291.01	565.18	337.75	422.97	635.52	287.57	397.79	578.49	261.88	414.49	622.75	363.77	407.5	608.8	97.822	379.29	634.77	119.23	298.94	570.64	59.281	327.16	587.32	34.888	300.52	579.14	35.959	362.38	NaN	NaN	NaN	766.9	75.369	292.59	823.73	107.56	339.93	352.97	700.35	131.57	424.74	598.68	153.46	357.08	609.34	152.24	421.6	685.53	131.16	346.46	508.96	171.1	360.92	505.61	294.79	210.66	374.82	174.99	229.34	266.32	194.11	174.19	312.32	192.38	261.57	333.65	177.01	112.56	146.19	210.35	140.16	144.47	293.28	52.236	136.69	259.94	53.323	102.08	292.12	49.397	107.17	227.38	206.43	39.097	196.86	228.87	44.575	310.96	292.33	43.104	263.68	340.86	1508.9	303.7	296.52	1225.1	300.48
345	1.4333	537.16	1212.6	304.83	413.08	1447.4	479.19	413.82	1482.8	144.4	430.13	1771.6	338.1	504.68	1006	409.79	507.22	1003.6	177	303.78	1022.6	334.36	309.55	1028.6	241.16	449.65	894.48	480.26	409.69	898.85	110.16	404.67	1068.7	455.74	416.18	1085.9	147.32	291.81	984.7	285.3	490.67	694.9	458.05	597.57	627.91	424.68	527.64	613.77	435.44	568.84	715.85	449.67	597.02	530.14	415.09	565.63	524.76	291.17	568.74	337.47	423.11	638.55	286.76	397.7	581.41	261.53	414.68	626.45	363.04	407.39	609.89	97.393	379.31	635.99	118.5	299.01	571.17	59.696	327.19	587.49	35.047	300.55	579.36	36.223	362.41	NaN	NaN	NaN	767.59	73.224	292.45	824.85	104.75	339.79	360.61	699.08	132.14	433.52	598.11	153.26	365.81	608.22	152.34	429.46	685	131.31	355.87	508.15	170.8	370.83	504.39	294.33	218.41	376.4	174.66	235.2	267.58	193.53	180.87	314.53	192.01	268.58	334.35	176.49	116.39	149.52	209.8	144.16	147.37	292.58	56.246	141.97	259.49	56.419	107.61	291.86	52.461	112.41	227.08	206.91	39.743	196.87	229.71	45.41	310.9	292.58	42.688	263.73	346.05	1508.8	304.43	302.04	1224.9	301.11
346	1.4375	542.72	1212.8	305.17	418.58	1447.4	479.81	418.68	1482.9	144.99	435.29	1771.6	338.59	510.57	1006.1	410.13	512.93	1003.7	177.4	309.56	1022.5	334.7	315.35	1028.3	241.53	455.68	894.59	480.61	415.82	898.41	110.54	410.57	1068.8	456.04	421.75	1085.8	147.58	297.61	984.51	285.66	496.09	695.06	458.26	602.79	627.71	424.68	532.87	613.76	435.69	574.4	715.75	449.65	601.9	529.84	415.15	569.85	524.5	291.4	572.24	337.24	423.33	641.52	286	397.67	584.26	261.24	414.94	630.09	362.36	407.35	610.91	97.015	379.36	637.12	117.85	299.13	571.64	60.112	327.27	587.61	35.232	300.6	579.53	36.486	362.47	NaN	NaN	NaN	768.19	71.192	292.34	825.87	102.05	339.68	368.39	697.77	132.69	442.49	597.57	153	374.74	607.08	152.36	437.47	684.49	131.42	365.54	507.32	170.41	381.05	503.15	293.8	226.46	378.03	174.27	241.35	268.93	192.91	187.88	316.81	191.6	275.89	335.11	175.92	120.55	153.02	209.2	148.48	150.42	291.85	60.649	147.53	259	59.86	113.46	291.55	55.864	117.97	226.74	207.5	40.525	196.87	230.65	46.338	310.82	292.86	42.265	263.77	351.24	1508.8	305.17	307.56	1224.8	301.74
